<?xml version="1.0" encoding="UTF-8" standalone="no"?>
<!-- Created with Inkscape (http://www.inkscape.org/) -->

<svg
   xmlns:dc="http://purl.org/dc/elements/1.1/"
   xmlns:cc="http://creativecommons.org/ns#"
   xmlns:rdf="http://www.w3.org/1999/02/22-rdf-syntax-ns#"
   xmlns:svg="http://www.w3.org/2000/svg"
   xmlns="http://www.w3.org/2000/svg"
   xmlns:sodipodi="http://sodipodi.sourceforge.net/DTD/sodipodi-0.dtd"
   xmlns:inkscape="http://www.inkscape.org/namespaces/inkscape"
   version="1.1"
   id="svg5382"
   xml:space="preserve"
   width="535.33331"
   height="318"
   viewBox="0 0 535.33331 318"
   sodipodi:docname="features1.svg"
   inkscape:version="0.92.1 r15371"><metadata
     id="metadata5388"><rdf:RDF><cc:Work
         rdf:about=""><dc:format>image/svg+xml</dc:format><dc:type
           rdf:resource="http://purl.org/dc/dcmitype/StillImage" /><dc:title></dc:title></cc:Work></rdf:RDF></metadata><defs
     id="defs5386"><clipPath
       clipPathUnits="userSpaceOnUse"
       id="clipPath5398"><path
         d="m 170.06,515.25 h 354.89 v 238.5 H 170.06 Z"
         id="path5396"
         inkscape:connector-curvature="0" /></clipPath><linearGradient
       x1="347.5"
       y1="992.25"
       x2="347.5"
       y2="515.25"
       gradientUnits="userSpaceOnUse"
       spreadMethod="pad"
       id="linearGradient5410"><stop
         style="stop-opacity:0.10196078;stop-color:#ffffff"
         offset="0"
         id="stop5400" /><stop
         style="stop-opacity:1;stop-color:#ffffff"
         offset="0.25"
         id="stop5402" /><stop
         style="stop-opacity:1;stop-color:#ffffff"
         offset="0.5"
         id="stop5404" /><stop
         style="stop-opacity:1;stop-color:#ffffff"
         offset="0.75"
         id="stop5406" /><stop
         style="stop-opacity:0.10196078;stop-color:#ffffff"
         offset="1"
         id="stop5408" /></linearGradient><mask
       maskUnits="userSpaceOnUse"
       x="0"
       y="0"
       width="1"
       height="1"
       id="mask5412"><g
         id="g5418"><g
           clip-path="url(#clipPath5398)"
           id="g5416"><path
             d="m 170.06,747.67 c 0,3.36 2.72,6.08 6.08,6.08 h 342.73 c 3.36,0 6.08,-2.72 6.08,-6.08 V 521.33 c 0,-3.36 -2.72,-6.08 -6.08,-6.08 H 176.14 c -3.36,0 -6.08,2.72 -6.08,6.08 z"
             style="fill:url(#linearGradient5410);fill-opacity:1;fill-rule:evenodd;stroke:none"
             id="path5414"
             inkscape:connector-curvature="0" /></g></g></mask><linearGradient
       x1="347.5"
       y1="992.25"
       x2="347.5"
       y2="515.25"
       gradientUnits="userSpaceOnUse"
       spreadMethod="pad"
       id="linearGradient5432"><stop
         style="stop-opacity:1;stop-color:#ff8080"
         offset="0"
         id="stop5422" /><stop
         style="stop-opacity:1;stop-color:#ffb3b3"
         offset="0.25"
         id="stop5424" /><stop
         style="stop-opacity:1;stop-color:#ffdada"
         offset="0.5"
         id="stop5426" /><stop
         style="stop-opacity:1;stop-color:#ffb3b3"
         offset="0.75"
         id="stop5428" /><stop
         style="stop-opacity:1;stop-color:#ff8080"
         offset="1"
         id="stop5430" /></linearGradient><clipPath
       clipPathUnits="userSpaceOnUse"
       id="clipPath5458"><path
         d="m 145.95,515.25 h 354.89 v 238.5 H 145.95 Z"
         id="path5456"
         inkscape:connector-curvature="0" /></clipPath><linearGradient
       x1="323.39999"
       y1="992.25"
       x2="323.39999"
       y2="515.25"
       gradientUnits="userSpaceOnUse"
       spreadMethod="pad"
       id="linearGradient5470"><stop
         style="stop-opacity:0.50196078;stop-color:#ffffff"
         offset="0"
         id="stop5460" /><stop
         style="stop-opacity:1;stop-color:#ffffff"
         offset="0.25"
         id="stop5462" /><stop
         style="stop-opacity:1;stop-color:#ffffff"
         offset="0.5"
         id="stop5464" /><stop
         style="stop-opacity:1;stop-color:#ffffff"
         offset="0.75"
         id="stop5466" /><stop
         style="stop-opacity:0.50196078;stop-color:#ffffff"
         offset="1"
         id="stop5468" /></linearGradient><mask
       maskUnits="userSpaceOnUse"
       x="0"
       y="0"
       width="1"
       height="1"
       id="mask5472"><g
         id="g5478"><g
           clip-path="url(#clipPath5458)"
           id="g5476"><path
             d="m 145.95,747.67 c 0,3.36 2.72,6.08 6.08,6.08 h 342.73 c 3.36,0 6.08,-2.72 6.08,-6.08 V 521.33 c 0,-3.36 -2.72,-6.08 -6.08,-6.08 H 152.03 c -3.36,0 -6.08,2.72 -6.08,6.08 z"
             style="fill:url(#linearGradient5470);fill-opacity:1;fill-rule:evenodd;stroke:none"
             id="path5474"
             inkscape:connector-curvature="0" /></g></g></mask><linearGradient
       x1="323.39999"
       y1="992.25"
       x2="323.39999"
       y2="515.25"
       gradientUnits="userSpaceOnUse"
       spreadMethod="pad"
       id="linearGradient5492"><stop
         style="stop-opacity:1;stop-color:#ff8080"
         offset="0"
         id="stop5482" /><stop
         style="stop-opacity:1;stop-color:#ffb3b3"
         offset="0.25"
         id="stop5484" /><stop
         style="stop-opacity:1;stop-color:#ffdada"
         offset="0.5"
         id="stop5486" /><stop
         style="stop-opacity:1;stop-color:#ffb3b3"
         offset="0.75"
         id="stop5488" /><stop
         style="stop-opacity:1;stop-color:#ff8080"
         offset="1"
         id="stop5490" /></linearGradient><linearGradient
       x1="300.92001"
       y1="992.25"
       x2="300.92001"
       y2="515.25"
       gradientUnits="userSpaceOnUse"
       spreadMethod="pad"
       id="linearGradient5524"><stop
         style="stop-opacity:1;stop-color:#e99490"
         offset="0"
         id="stop5514" /><stop
         style="stop-opacity:1;stop-color:#efbfbd"
         offset="0.25"
         id="stop5516" /><stop
         style="stop-opacity:1;stop-color:#f7e0df"
         offset="0.5"
         id="stop5518" /><stop
         style="stop-opacity:1;stop-color:#efbfbd"
         offset="0.75"
         id="stop5520" /><stop
         style="stop-opacity:1;stop-color:#e99490"
         offset="1"
         id="stop5522" /></linearGradient></defs><sodipodi:namedview
     pagecolor="#ffffff"
     bordercolor="#666666"
     borderopacity="1"
     objecttolerance="10"
     gridtolerance="10"
     guidetolerance="10"
     inkscape:pageopacity="0"
     inkscape:pageshadow="2"
     inkscape:window-width="1920"
     inkscape:window-height="1017"
     id="namedview5384"
     showgrid="false"
     fit-margin-top="0"
     fit-margin-left="0"
     fit-margin-right="0"
     fit-margin-bottom="0"
     inkscape:zoom="0.98901497"
     inkscape:cx="243.4"
     inkscape:cy="169.04674"
     inkscape:window-x="1912"
     inkscape:window-y="-8"
     inkscape:window-maximized="1"
     inkscape:current-layer="g5390" /><g
     id="g5390"
     inkscape:groupmode="layer"
     inkscape:label="features1"
     transform="matrix(1.3333333,0,0,-1.3333333,-164.6,1005)"><g
       id="g5392"><g
         id="g5394" /><g
         id="g5420"
         mask="url(#mask5412)"><path
           d="m 170.06,747.67 c 0,3.36 2.72,6.08 6.08,6.08 h 342.73 c 3.36,0 6.08,-2.72 6.08,-6.08 V 521.33 c 0,-3.36 -2.72,-6.08 -6.08,-6.08 H 176.14 c -3.36,0 -6.08,2.72 -6.08,6.08 z"
           style="fill:url(#linearGradient5432);fill-opacity:1;fill-rule:evenodd;stroke:none"
           id="path5434"
           inkscape:connector-curvature="0" /></g></g><path
       d="m 174.34,706.24 c 0,14.88 11.8,26.94 26.34,26.94 14.55,0 26.35,-12.06 26.35,-26.94 0,-14.87 -11.8,-26.93 -26.35,-26.93 -14.54,0 -26.34,12.06 -26.34,26.93 z"
       style="fill:#ea8c8c;fill-opacity:0.38824002;fill-rule:evenodd;stroke:none"
       id="path5436"
       inkscape:connector-curvature="0" /><path
       d="m 416.88,613.52 c 0,25.85 20.95,46.8 46.79,46.8 25.85,0 46.8,-20.95 46.8,-46.8 0,-25.85 -20.95,-46.8 -46.8,-46.8 -25.84,0 -46.79,20.95 -46.79,46.8 z"
       style="fill:#ea8c8c;fill-opacity:0.38824002;fill-rule:evenodd;stroke:none"
       id="path5438"
       inkscape:connector-curvature="0" /><path
       d="m 192.34,577.92 c 0,22.31 17.69,40.4 39.51,40.4 21.83,0 39.52,-18.09 39.52,-40.4 0,-22.32 -17.69,-40.41 -39.52,-40.41 -21.82,0 -39.51,18.09 -39.51,40.41 z"
       style="fill:#ea8c8c;fill-opacity:0.38824002;fill-rule:evenodd;stroke:none"
       id="path5440"
       inkscape:connector-curvature="0" /><path
       d="m 180.34,548.5 c 0,2.59 2.09,4.68 4.67,4.68 h 324.15 c 2.58,0 4.67,-2.09 4.67,-4.68 v -16.84 c 0,-2.58 -2.09,-4.67 -4.67,-4.67 H 185.01 c -2.58,0 -4.67,2.09 -4.67,4.67 z"
       style="fill:#ea8c8c;fill-opacity:0.38824002;fill-rule:evenodd;stroke:none"
       id="path5442"
       inkscape:connector-curvature="0" /><path
       d="m 466.39,688.78 c 0,7.95 6.45,14.4 14.4,14.4 7.95,0 14.4,-6.45 14.4,-14.4 0,-7.95 -6.45,-14.4 -14.4,-14.4 -7.95,0 -14.4,6.45 -14.4,14.4 z"
       style="fill:#ea8c8c;fill-opacity:0.38824002;fill-rule:evenodd;stroke:none"
       id="path5444"
       inkscape:connector-curvature="0" /><path
       d="m 173.72,753.75 h 345.85 c 2.5,0 4.52,-2.02 4.52,-4.52 v -22.6 H 169.2 v 22.6 c 0,2.5 2.02,4.52 4.52,4.52 z"
       style="fill:#ea8c8c;fill-opacity:0.38824002;fill-rule:evenodd;stroke:none"
       id="path5446"
       inkscape:connector-curvature="0" /><path
       d="m 327.75,606.2 c 0,22.32 17.69,40.41 39.51,40.41 21.83,0 39.52,-18.09 39.52,-40.41 0,-22.31 -17.69,-40.4 -39.52,-40.4 -21.82,0 -39.51,18.09 -39.51,40.4 z"
       style="fill:#ea8c8c;fill-opacity:0.38824002;fill-rule:evenodd;stroke:none"
       id="path5448"
       inkscape:connector-curvature="0" /><path
       d="m 261.76,683.1 c 0,14.88 11.79,26.94 26.34,26.94 14.55,0 26.34,-12.06 26.34,-26.94 0,-14.88 -11.79,-26.94 -26.34,-26.94 -14.55,0 -26.34,12.06 -26.34,26.94 z"
       style="fill:#ea8c8c;fill-opacity:0.38824002;fill-rule:evenodd;stroke:none"
       id="path5450"
       inkscape:connector-curvature="0" /><g
       id="g5452"><g
         id="g5454" /><g
         id="g5480"
         mask="url(#mask5472)"><path
           d="m 145.95,747.67 c 0,3.36 2.72,6.08 6.08,6.08 h 342.73 c 3.36,0 6.08,-2.72 6.08,-6.08 V 521.33 c 0,-3.36 -2.72,-6.08 -6.08,-6.08 H 152.03 c -3.36,0 -6.08,2.72 -6.08,6.08 z"
           style="fill:url(#linearGradient5492);fill-opacity:1;fill-rule:evenodd;stroke:none"
           id="path5494"
           inkscape:connector-curvature="0" /></g></g><path
       d="m 151.09,706.24 c 0,14.88 11.8,26.94 26.34,26.94 14.55,0 26.35,-12.06 26.35,-26.94 0,-14.87 -11.8,-26.93 -26.35,-26.93 -14.54,0 -26.34,12.06 -26.34,26.93 z"
       style="fill:#ea8c8c;fill-opacity:0.50196013;fill-rule:evenodd;stroke:none"
       id="path5496"
       inkscape:connector-curvature="0" /><path
       d="m 422.77,601.35 c 0,17.89 14.5,32.4 32.39,32.4 17.9,0 32.4,-14.51 32.4,-32.4 0,-17.89 -14.5,-32.4 -32.4,-32.4 -17.89,0 -32.39,14.51 -32.39,32.4 z"
       style="fill:#ea8c8c;fill-opacity:0.50196013;fill-rule:evenodd;stroke:none"
       id="path5498"
       inkscape:connector-curvature="0" /><path
       d="m 169.09,577.92 c 0,22.31 17.69,40.4 39.51,40.4 21.83,0 39.52,-18.09 39.52,-40.4 0,-22.32 -17.69,-40.41 -39.52,-40.41 -21.82,0 -39.51,18.09 -39.51,40.41 z"
       style="fill:#ea8c8c;fill-opacity:0.50196013;fill-rule:evenodd;stroke:none"
       id="path5500"
       inkscape:connector-curvature="0" /><path
       d="m 157.09,548.5 c 0,2.59 2.09,4.68 4.67,4.68 h 324.15 c 2.58,0 4.67,-2.09 4.67,-4.68 v -16.84 c 0,-2.58 -2.09,-4.67 -4.67,-4.67 H 161.76 c -2.58,0 -4.67,2.09 -4.67,4.67 z"
       style="fill:#ff8080;fill-opacity:0.50196013;fill-rule:evenodd;stroke:none"
       id="path5502"
       inkscape:connector-curvature="0" /><path
       d="m 449.14,698.72 c 0,11.93 9.67,21.6 21.6,21.6 11.92,0 21.59,-9.67 21.59,-21.6 0,-11.93 -9.67,-21.6 -21.59,-21.6 -11.93,0 -21.6,9.67 -21.6,21.6 z"
       style="fill:#ea8c8c;fill-opacity:0.50196013;fill-rule:evenodd;stroke:none"
       id="path5504"
       inkscape:connector-curvature="0" /><path
       d="m 150.47,753.75 h 345.85 c 2.5,0 4.52,-2.02 4.52,-4.52 v -22.6 H 145.95 v 22.6 c 0,2.5 2.02,4.52 4.52,4.52 z"
       style="fill:#ff8080;fill-opacity:0.50196013;fill-rule:evenodd;stroke:none"
       id="path5506"
       inkscape:connector-curvature="0" /><path
       d="m 304.5,606.2 c 0,22.32 17.69,40.41 39.51,40.41 21.83,0 39.52,-18.09 39.52,-40.41 0,-22.31 -17.69,-40.4 -39.52,-40.4 -21.82,0 -39.51,18.09 -39.51,40.4 z"
       style="fill:#ea8c8c;fill-opacity:0.50196013;fill-rule:evenodd;stroke:none"
       id="path5508"
       inkscape:connector-curvature="0" /><path
       d="m 238.51,683.1 c 0,14.88 11.79,26.94 26.34,26.94 14.55,0 26.34,-12.06 26.34,-26.94 0,-14.88 -11.79,-26.94 -26.34,-26.94 -14.55,0 -26.34,12.06 -26.34,26.94 z"
       style="fill:#ea8c8c;fill-opacity:0.50196013;fill-rule:evenodd;stroke:none"
       id="path5510"
       inkscape:connector-curvature="0" /><g
       id="g5512"><path
         d="m 123.45,747.67 c 0,3.36 2.72,6.08 6.08,6.08 h 342.78 c 3.35,0 6.08,-2.72 6.08,-6.08 V 521.33 c 0,-3.36 -2.73,-6.08 -6.08,-6.08 H 129.53 c -3.36,0 -6.08,2.72 -6.08,6.08 z"
         style="fill:url(#linearGradient5524);fill-opacity:1;fill-rule:evenodd;stroke:none"
         id="path5526"
         inkscape:connector-curvature="0" /></g><path
       d="m 128.59,706.24 c 0,14.88 11.8,26.94 26.35,26.94 14.55,0 26.34,-12.06 26.34,-26.94 0,-14.87 -11.79,-26.93 -26.34,-26.93 -14.55,0 -26.35,12.06 -26.35,26.93 z"
       style="fill:#ea8c8c;fill-opacity:1;fill-rule:evenodd;stroke:none"
       id="path5528"
       inkscape:connector-curvature="0" /><path
       d="m 420.02,553.67 c 0,14.88 11.79,26.94 26.34,26.94 14.55,0 26.35,-12.06 26.35,-26.94 0,-14.88 -11.8,-26.94 -26.35,-26.94 -14.55,0 -26.34,12.06 -26.34,26.94 z"
       style="fill:#ea8c8c;fill-opacity:1;fill-rule:evenodd;stroke:none"
       id="path5530"
       inkscape:connector-curvature="0" /><path
       d="m 146.59,577.92 c 0,22.31 17.7,40.4 39.52,40.4 21.83,0 39.52,-18.09 39.52,-40.4 0,-22.32 -17.69,-40.41 -39.52,-40.41 -21.82,0 -39.52,18.09 -39.52,40.41 z"
       style="fill:#ea8c8c;fill-opacity:1;fill-rule:evenodd;stroke:none"
       id="path5532"
       inkscape:connector-curvature="0" /><path
       d="m 134.59,548.5 c 0,2.59 2.1,4.68 4.68,4.68 h 324.18 c 2.58,0 4.67,-2.09 4.67,-4.68 v -16.84 c 0,-2.58 -2.09,-4.67 -4.67,-4.67 H 139.27 c -2.58,0 -4.68,2.09 -4.68,4.67 z"
       style="fill:#ff8080;fill-opacity:1;fill-rule:evenodd;stroke:none"
       id="path5534"
       inkscape:connector-curvature="0" /><path
       d="m 358.3,695.8 c 0,27.27 21.63,49.38 48.3,49.38 26.68,0 48.3,-22.11 48.3,-49.38 0,-27.28 -21.62,-49.39 -48.3,-49.39 -26.67,0 -48.3,22.11 -48.3,49.39 z"
       style="fill:#ea8c8c;fill-opacity:1;fill-rule:evenodd;stroke:none"
       id="path5536"
       inkscape:connector-curvature="0" /><path
       d="m 127.97,753.75 h 345.89 c 2.5,0 4.53,-2.02 4.53,-4.52 v -22.6 H 123.45 v 22.6 c 0,2.5 2.02,4.52 4.52,4.52 z"
       style="fill:#ff8080;fill-opacity:1;fill-rule:evenodd;stroke:none"
       id="path5538"
       inkscape:connector-curvature="0" /><path
       d="m 282.02,606.2 c 0,22.32 17.69,40.41 39.52,40.41 21.82,0 39.52,-18.09 39.52,-40.41 0,-22.31 -17.7,-40.4 -39.52,-40.4 -21.83,0 -39.52,18.09 -39.52,40.4 z"
       style="fill:#ea8c8c;fill-opacity:1;fill-rule:evenodd;stroke:none"
       id="path5540"
       inkscape:connector-curvature="0" /><path
       d="m 216.02,683.1 c 0,14.88 11.8,26.94 26.35,26.94 14.55,0 26.34,-12.06 26.34,-26.94 0,-14.88 -11.79,-26.94 -26.34,-26.94 -14.55,0 -26.35,12.06 -26.35,26.94 z"
       style="fill:#ea8c8c;fill-opacity:1;fill-rule:evenodd;stroke:none"
       id="path5542"
       inkscape:connector-curvature="0" /></g></svg>