<?xml version="1.0" encoding="UTF-8" standalone="no"?>
<!-- Created with Inkscape (http://www.inkscape.org/) -->

<svg
   xmlns:dc="http://purl.org/dc/elements/1.1/"
   xmlns:cc="http://creativecommons.org/ns#"
   xmlns:rdf="http://www.w3.org/1999/02/22-rdf-syntax-ns#"
   xmlns:svg="http://www.w3.org/2000/svg"
   xmlns="http://www.w3.org/2000/svg"
   xmlns:sodipodi="http://sodipodi.sourceforge.net/DTD/sodipodi-0.dtd"
   xmlns:inkscape="http://www.inkscape.org/namespaces/inkscape"
   version="1.1"
   id="svg10"
   xml:space="preserve"
   width="977.1333"
   height="467.06964"
   viewBox="0 0 977.1333 467.06964"
   sodipodi:docname="forumgraphic3.svg"
   inkscape:version="0.92.1 r15371"><metadata
     id="metadata16"><rdf:RDF><cc:Work
         rdf:about=""><dc:format>image/svg+xml</dc:format><dc:type
           rdf:resource="http://purl.org/dc/dcmitype/StillImage" /><dc:title></dc:title></cc:Work></rdf:RDF></metadata><defs
     id="defs14" /><sodipodi:namedview
     pagecolor="#ffffff"
     bordercolor="#666666"
     borderopacity="1"
     objecttolerance="10"
     gridtolerance="10"
     guidetolerance="10"
     inkscape:pageopacity="0"
     inkscape:pageshadow="2"
     inkscape:window-width="1920"
     inkscape:window-height="1017"
     id="namedview12"
     showgrid="false"
     inkscape:zoom="0.73483646"
     inkscape:cx="811.17738"
     inkscape:cy="310.32892"
     inkscape:window-x="1912"
     inkscape:window-y="-8"
     inkscape:window-maximized="1"
     inkscape:current-layer="g18"
     fit-margin-top="0"
     fit-margin-left="0"
     fit-margin-right="0"
     fit-margin-bottom="0" /><g
     id="g18"
     inkscape:groupmode="layer"
     inkscape:label="forumgraphic3"
     transform="matrix(1.3333333,0,0,-1.3333333,-24.933333,585.14665)"><path
       d="M 18.75,90.058 H 621"
       style="fill:none;stroke:#f2dcdb;stroke-width:3;stroke-linecap:butt;stroke-linejoin:round;stroke-miterlimit:10;stroke-dasharray:none;stroke-opacity:1"
       id="path20"
       inkscape:connector-curvature="0" /><path
       d="m 20.25,432.23 c 0,2.83 2.295,5.13 5.125,5.13 H 617.37 c 2.84,0 5.13,-2.3 5.13,-5.13 v -20.5 c 0,-2.83 -2.29,-5.12 -5.13,-5.12 H 25.375 c -2.83,0 -5.125,2.29 -5.125,5.12 z"
       style="fill:none;stroke:#f2dcdb;stroke-width:3;stroke-linecap:butt;stroke-linejoin:round;stroke-miterlimit:10;stroke-dasharray:none;stroke-opacity:1"
       id="path22"
       inkscape:connector-curvature="0" /><path
       d="m 97.5,328.18 c 0,0.62 0.504,1.13 1.125,1.13 h 47.995 c 0.63,0 1.13,-0.51 1.13,-1.13 v -4.5 c 0,-0.62 -0.5,-1.12 -1.13,-1.12 H 98.625 c -0.621,0 -1.125,0.5 -1.125,1.12 z"
       style="fill:none;stroke:#d99694;stroke-width:3;stroke-linecap:butt;stroke-linejoin:round;stroke-miterlimit:10;stroke-dasharray:none;stroke-opacity:1"
       id="path24"
       inkscape:connector-curvature="0" /><path
       d="m 97.5,315.43 c 0,0.62 0.504,1.13 1.125,1.13 h 47.995 c 0.63,0 1.13,-0.51 1.13,-1.13 v -4.5 c 0,-0.62 -0.5,-1.12 -1.13,-1.12 H 98.625 c -0.621,0 -1.125,0.5 -1.125,1.12 z"
       style="fill:none;stroke:#d99694;stroke-width:3;stroke-linecap:butt;stroke-linejoin:round;stroke-miterlimit:10;stroke-dasharray:none;stroke-opacity:1"
       id="path26"
       inkscape:connector-curvature="0" /><path
       d="m 90,341.68 c 0,0.62 0.504,1.13 1.125,1.13 h 55.495 c 0.63,0 1.13,-0.51 1.13,-1.13 v -4.5 c 0,-0.62 -0.5,-1.12 -1.13,-1.12 H 91.125 c -0.621,0 -1.125,0.5 -1.125,1.12 z"
       style="fill:none;stroke:#d99694;stroke-width:3;stroke-linecap:butt;stroke-linejoin:round;stroke-miterlimit:10;stroke-dasharray:none;stroke-opacity:1"
       id="path28"
       inkscape:connector-curvature="0" /><path
       d="m 90,355.18 c 0,0.62 0.504,1.13 1.125,1.13 h 55.495 c 0.63,0 1.13,-0.51 1.13,-1.13 v -4.5 c 0,-0.62 -0.5,-1.12 -1.13,-1.12 H 91.125 c -0.621,0 -1.125,0.5 -1.125,1.12 z"
       style="fill:none;stroke:#d99694;stroke-width:3;stroke-linecap:butt;stroke-linejoin:round;stroke-miterlimit:10;stroke-dasharray:none;stroke-opacity:1"
       id="path30"
       inkscape:connector-curvature="0" /><path
       d="m 90,368.68 c 0,0.62 0.504,1.13 1.125,1.13 h 55.495 c 0.63,0 1.13,-0.51 1.13,-1.13 v -4.5 c 0,-0.62 -0.5,-1.12 -1.13,-1.12 H 91.125 c -0.621,0 -1.125,0.5 -1.125,1.12 z"
       style="fill:none;stroke:#d99694;stroke-width:3;stroke-linecap:butt;stroke-linejoin:round;stroke-miterlimit:10;stroke-dasharray:none;stroke-opacity:1"
       id="path32"
       inkscape:connector-curvature="0" /><path
       d="m 90,396.43 c 0,0.62 0.504,1.13 1.125,1.13 h 47.995 c 0.63,0 1.13,-0.51 1.13,-1.13 v -4.5 c 0,-0.62 -0.5,-1.12 -1.13,-1.12 H 91.125 c -0.621,0 -1.125,0.5 -1.125,1.12 z"
       style="fill:none;stroke:#d99694;stroke-width:3;stroke-linecap:butt;stroke-linejoin:round;stroke-miterlimit:10;stroke-dasharray:none;stroke-opacity:1"
       id="path34"
       inkscape:connector-curvature="0" /><path
       d="m 90,382.18 c 0,0.62 0.504,1.13 1.125,1.13 h 55.495 c 0.63,0 1.13,-0.51 1.13,-1.13 v -4.5 c 0,-0.62 -0.5,-1.12 -1.13,-1.12 H 91.125 c -0.621,0 -1.125,0.5 -1.125,1.12 z"
       style="fill:none;stroke:#d99694;stroke-width:3;stroke-linecap:butt;stroke-linejoin:round;stroke-miterlimit:10;stroke-dasharray:none;stroke-opacity:1"
       id="path36"
       inkscape:connector-curvature="0" /><path
       d="m 90.75,139.43 c 0,1.73 1.399,3.13 3.125,3.13 h 50.745 c 1.73,0 3.13,-1.4 3.13,-3.13 v -12.5 c 0,-1.72 -1.4,-3.12 -3.13,-3.12 H 93.875 c -1.726,0 -3.125,1.4 -3.125,3.12 z"
       style="fill:none;stroke:#d99694;stroke-width:3;stroke-linecap:butt;stroke-linejoin:round;stroke-miterlimit:10;stroke-dasharray:none;stroke-opacity:1"
       id="path38"
       inkscape:connector-curvature="0" /><path
       d="m 90.75,113.18 c 0,1.73 1.399,3.13 3.125,3.13 h 50.745 c 1.73,0 3.13,-1.4 3.13,-3.13 v -12.5 c 0,-1.723 -1.4,-3.122 -3.13,-3.122 H 93.875 c -1.726,0 -3.125,1.399 -3.125,3.122 z"
       style="fill:none;stroke:#d99694;stroke-width:3;stroke-linecap:butt;stroke-linejoin:round;stroke-miterlimit:10;stroke-dasharray:none;stroke-opacity:1"
       id="path40"
       inkscape:connector-curvature="0" /><path
       d="M 81.75,90.058 H 684"
       style="fill:none;stroke:#d99694;stroke-width:3;stroke-linecap:butt;stroke-linejoin:round;stroke-miterlimit:10;stroke-dasharray:none;stroke-opacity:1"
       id="path42"
       inkscape:connector-curvature="0" /><path
       d="m 82.5,432.23 c 0,2.83 2.295,5.13 5.125,5.13 H 679.62 c 2.84,0 5.13,-2.3 5.13,-5.13 v -20.5 c 0,-2.83 -2.29,-5.12 -5.13,-5.12 H 87.625 c -2.83,0 -5.125,2.29 -5.125,5.12 z"
       style="fill:none;stroke:#d99694;stroke-width:3;stroke-linecap:butt;stroke-linejoin:round;stroke-miterlimit:10;stroke-dasharray:none;stroke-opacity:1"
       id="path44"
       inkscape:connector-curvature="0" /><path
       d="m 147.75,432.23 c 0,2.83 2.29,5.13 5.13,5.13 h 591.99 c 2.84,0 5.13,-2.3 5.13,-5.13 v -20.5 c 0,-2.83 -2.29,-5.12 -5.13,-5.12 H 152.88 c -2.84,0 -5.13,2.29 -5.13,5.12 z"
       style="fill:none;stroke:#c00000;stroke-width:3;stroke-linecap:butt;stroke-linejoin:round;stroke-miterlimit:10;stroke-dasharray:none;stroke-opacity:1"
       id="path48"
       inkscape:connector-curvature="0" /><path
       d="M 147.75,423.81 147.7,88.558"
       style="fill:none;stroke:#c00000;stroke-width:3;stroke-linecap:butt;stroke-linejoin:round;stroke-miterlimit:10;stroke-dasharray:none;stroke-opacity:1"
       id="path54"
       inkscape:connector-curvature="0" /><path
       d="M 750.05,413.31 750,88.558"
       style="fill:none;stroke:#c00000;stroke-width:3;stroke-linecap:butt;stroke-linejoin:round;stroke-miterlimit:10;stroke-dasharray:none;stroke-opacity:1"
       id="path56"
       inkscape:connector-curvature="0" /><path
       d="m 146.25,339.06 h 603"
       style="fill:none;stroke:#c00000;stroke-width:3;stroke-linecap:butt;stroke-linejoin:round;stroke-miterlimit:10;stroke-dasharray:none;stroke-opacity:1"
       id="path58"
       inkscape:connector-curvature="0" /><path
       d="m 192.75,315.68 c 0,1.73 1.4,3.13 3.13,3.13 h 58.24 c 1.73,0 3.13,-1.4 3.13,-3.13 v -12.5 c 0,-1.72 -1.4,-3.12 -3.13,-3.12 h -58.24 c -1.73,0 -3.13,1.4 -3.13,3.12 z"
       style="fill:none;stroke:#c00000;stroke-width:3;stroke-linecap:butt;stroke-linejoin:round;stroke-miterlimit:10;stroke-dasharray:none;stroke-opacity:1"
       id="path60"
       inkscape:connector-curvature="0" /><path
       d="m 279.75,315.68 c 0,1.73 1.4,3.13 3.13,3.13 h 33.49 c 1.73,0 3.13,-1.4 3.13,-3.13 v -12.5 c 0,-1.72 -1.4,-3.12 -3.13,-3.12 h -33.49 c -1.73,0 -3.13,1.4 -3.13,3.12 z"
       style="fill:none;stroke:#c00000;stroke-width:3;stroke-linecap:butt;stroke-linejoin:round;stroke-miterlimit:10;stroke-dasharray:none;stroke-opacity:1"
       id="path62"
       inkscape:connector-curvature="0" /><path
       d="m 279,274.98 c 0,6.84 5.54,12.38 12.38,12.38 6.83,0 12.37,-5.54 12.37,-12.38 0,-6.83 -5.54,-12.37 -12.37,-12.37 -6.84,0 -12.38,5.54 -12.38,12.37 z"
       style="fill:none;stroke:#c00000;stroke-width:3;stroke-linecap:butt;stroke-linejoin:round;stroke-miterlimit:10;stroke-dasharray:none;stroke-opacity:1"
       id="path64"
       inkscape:connector-curvature="0" /><path
       d="m 641.25,1.9251 c 0,6.8346 5.54,12.3749 12.38,12.3749 6.83,0 12.37,-5.5403 12.37,-12.3749 0,-6.8345 -5.54,-12.3751 -12.37,-12.3751 -6.84,0 -12.38,5.5406 -12.38,12.3751 z"
       style="fill:#ffffff;fill-opacity:1;fill-rule:evenodd;stroke:none"
       id="path66"
       inkscape:connector-curvature="0" /><path
       d="m 728.25,421.56 c 0,2.9 2.35,5.25 5.25,5.25 2.9,0 5.25,-2.35 5.25,-5.25 0,-2.9 -2.35,-5.25 -5.25,-5.25 -2.9,0 -5.25,2.35 -5.25,5.25 z"
       style="fill:#ffffff;fill-opacity:1;fill-rule:evenodd;stroke:none"
       id="path70"
       inkscape:connector-curvature="0" /><path
       d="m 728.25,421.56 c 0,2.9 2.35,5.25 5.25,5.25 2.9,0 5.25,-2.35 5.25,-5.25 0,-2.9 -2.35,-5.25 -5.25,-5.25 -2.9,0 -5.25,2.35 -5.25,5.25 z"
       style="fill:none;stroke:#c00000;stroke-width:3;stroke-linecap:butt;stroke-linejoin:round;stroke-miterlimit:10;stroke-dasharray:none;stroke-opacity:1"
       id="path72"
       inkscape:connector-curvature="0" /><path
       d="m 710.25,421.56 c 0,2.9 2.35,5.25 5.25,5.25 2.9,0 5.25,-2.35 5.25,-5.25 0,-2.9 -2.35,-5.25 -5.25,-5.25 -2.9,0 -5.25,2.35 -5.25,5.25 z"
       style="fill:#ffffff;fill-opacity:1;fill-rule:evenodd;stroke:none"
       id="path74"
       inkscape:connector-curvature="0" /><path
       d="m 710.25,421.56 c 0,2.9 2.35,5.25 5.25,5.25 2.9,0 5.25,-2.35 5.25,-5.25 0,-2.9 -2.35,-5.25 -5.25,-5.25 -2.9,0 -5.25,2.35 -5.25,5.25 z"
       style="fill:none;stroke:#c00000;stroke-width:3;stroke-linecap:butt;stroke-linejoin:round;stroke-miterlimit:10;stroke-dasharray:none;stroke-opacity:1"
       id="path76"
       inkscape:connector-curvature="0" /><path
       d="m 693,421.56 c 0,2.9 2.35,5.25 5.25,5.25 2.9,0 5.25,-2.35 5.25,-5.25 0,-2.9 -2.35,-5.25 -5.25,-5.25 -2.9,0 -5.25,2.35 -5.25,5.25 z"
       style="fill:#ffffff;fill-opacity:1;fill-rule:evenodd;stroke:none"
       id="path78"
       inkscape:connector-curvature="0" /><path
       d="m 693,421.56 c 0,2.9 2.35,5.25 5.25,5.25 2.9,0 5.25,-2.35 5.25,-5.25 0,-2.9 -2.35,-5.25 -5.25,-5.25 -2.9,0 -5.25,2.35 -5.25,5.25 z"
       style="fill:none;stroke:#c00000;stroke-width:3;stroke-linecap:butt;stroke-linejoin:round;stroke-miterlimit:10;stroke-dasharray:none;stroke-opacity:1"
       id="path80"
       inkscape:connector-curvature="0" /><path
       d="m 682.5,315.68 c 0,1.73 1.4,3.13 3.13,3.13 h 12.49 c 1.73,0 3.13,-1.4 3.13,-3.13 v -12.5 c 0,-1.72 -1.4,-3.12 -3.13,-3.12 h -12.49 c -1.73,0 -3.13,1.4 -3.13,3.12 z"
       style="fill:none;stroke:#c00000;stroke-width:3;stroke-linecap:butt;stroke-linejoin:round;stroke-miterlimit:10;stroke-dasharray:none;stroke-opacity:1"
       id="path82"
       inkscape:connector-curvature="0" /><path
       d="m 654.75,315.68 c 0,1.73 1.4,3.13 3.13,3.13 h 12.49 c 1.73,0 3.13,-1.4 3.13,-3.13 v -12.5 c 0,-1.72 -1.4,-3.12 -3.13,-3.12 h -12.49 c -1.73,0 -3.13,1.4 -3.13,3.12 z"
       style="fill:none;stroke:#c00000;stroke-width:3;stroke-linecap:butt;stroke-linejoin:round;stroke-miterlimit:10;stroke-dasharray:none;stroke-opacity:1"
       id="path84"
       inkscape:connector-curvature="0" /><path
       d="M 146.25,90.058 H 748.5"
       style="fill:none;stroke:#c00000;stroke-width:3;stroke-linecap:butt;stroke-linejoin:round;stroke-miterlimit:10;stroke-dasharray:none;stroke-opacity:1"
       id="path86"
       inkscape:connector-curvature="0" /><path
       d="m 192.75,289.93 c 0,1.04 0.84,1.88 1.88,1.88 h 7.49 c 1.04,0 1.88,-0.84 1.88,-1.88 v -8.25 c 0,-1.03 -0.84,-1.87 -1.88,-1.87 h -7.49 c -1.04,0 -1.88,0.84 -1.88,1.87 z"
       style="fill:none;stroke:#c00000;stroke-width:3;stroke-linecap:butt;stroke-linejoin:round;stroke-miterlimit:10;stroke-dasharray:none;stroke-opacity:1"
       id="path88"
       inkscape:connector-curvature="0" /><path
       d="m 192.75,271.93 c 0,1.04 0.84,1.88 1.88,1.88 h 7.49 c 1.04,0 1.88,-0.84 1.88,-1.88 v -8.25 c 0,-1.03 -0.84,-1.87 -1.88,-1.87 h -7.49 c -1.04,0 -1.88,0.84 -1.88,1.87 z"
       style="fill:none;stroke:#c00000;stroke-width:3;stroke-linecap:butt;stroke-linejoin:round;stroke-miterlimit:10;stroke-dasharray:none;stroke-opacity:1"
       id="path90"
       inkscape:connector-curvature="0" /><path
       d="m 192.75,253.93 c 0,1.04 0.84,1.88 1.88,1.88 h 7.49 c 1.04,0 1.88,-0.84 1.88,-1.88 v -8.25 c 0,-1.03 -0.84,-1.87 -1.88,-1.87 h -7.49 c -1.04,0 -1.88,0.84 -1.88,1.87 z"
       style="fill:none;stroke:#c00000;stroke-width:3;stroke-linecap:butt;stroke-linejoin:round;stroke-miterlimit:10;stroke-dasharray:none;stroke-opacity:1"
       id="path92"
       inkscape:connector-curvature="0" /><path
       d="m 593.25,8.6751 c 0,6.8349 5.54,12.3749 12.38,12.3749 6.83,0 12.37,-5.54 12.37,-12.3749 0,-6.8345 -5.54,-12.375 -12.37,-12.375 -6.84,0 -12.38,5.5405 -12.38,12.375 z"
       style="fill:#ffffff;fill-opacity:1;fill-rule:evenodd;stroke:none"
       id="path94"
       inkscape:connector-curvature="0" /><path
       d="m 608.25,281.81 c 0,0.96 0.78,1.75 1.75,1.75 h 15.25 c 0.97,0 1.75,-0.79 1.75,-1.75 v -7 c 0,-0.97 -0.78,-1.75 -1.75,-1.75 H 610 c -0.97,0 -1.75,0.78 -1.75,1.75 z"
       style="fill:none;stroke:#c00000;stroke-width:3;stroke-linecap:butt;stroke-linejoin:round;stroke-miterlimit:10;stroke-dasharray:none;stroke-opacity:1"
       id="path98"
       inkscape:connector-curvature="0" /><path
       d="m 627,281.81 c 0,0.96 0.78,1.75 1.75,1.75 H 644 c 0.97,0 1.75,-0.79 1.75,-1.75 v -7 c 0,-0.97 -0.78,-1.75 -1.75,-1.75 h -15.25 c -0.97,0 -1.75,0.78 -1.75,1.75 z"
       style="fill:none;stroke:#c00000;stroke-width:3;stroke-linecap:butt;stroke-linejoin:round;stroke-miterlimit:10;stroke-dasharray:none;stroke-opacity:1"
       id="path100"
       inkscape:connector-curvature="0" /><path
       d="m 653.25,278.31 c 0,2.9 2.35,5.25 5.25,5.25 2.9,0 5.25,-2.35 5.25,-5.25 0,-2.9 -2.35,-5.25 -5.25,-5.25 -2.9,0 -5.25,2.35 -5.25,5.25 z"
       style="fill:#ffffff;fill-opacity:1;fill-rule:evenodd;stroke:none"
       id="path102"
       inkscape:connector-curvature="0" /><path
       d="m 653.25,278.31 c 0,2.9 2.35,5.25 5.25,5.25 2.9,0 5.25,-2.35 5.25,-5.25 0,-2.9 -2.35,-5.25 -5.25,-5.25 -2.9,0 -5.25,2.35 -5.25,5.25 z"
       style="fill:none;stroke:#c00000;stroke-width:3;stroke-linecap:butt;stroke-linejoin:round;stroke-miterlimit:10;stroke-dasharray:none;stroke-opacity:1"
       id="path104"
       inkscape:connector-curvature="0" /><path
       d="m 314.25,282.43 c 0,0.62 0.5,1.13 1.13,1.13 h 54.74 c 0.63,0 1.13,-0.51 1.13,-1.13 v -4.5 c 0,-0.62 -0.5,-1.12 -1.13,-1.12 h -54.74 c -0.63,0 -1.13,0.5 -1.13,1.12 z"
       style="fill:none;stroke:#c00000;stroke-width:3;stroke-linecap:butt;stroke-linejoin:round;stroke-miterlimit:10;stroke-dasharray:none;stroke-opacity:1"
       id="path106"
       inkscape:connector-curvature="0" /><path
       d="m 314.2,270.43 c 0,0.62 0.5,1.13 1.12,1.13 h 90 c 0.63,0 1.13,-0.51 1.13,-1.13 v -4.5 c 0,-0.62 -0.5,-1.12 -1.13,-1.12 h -90 c -0.62,0 -1.12,0.5 -1.12,1.12 z"
       style="fill:none;stroke:#c00000;stroke-width:3;stroke-linecap:butt;stroke-linejoin:round;stroke-miterlimit:10;stroke-dasharray:none;stroke-opacity:1"
       id="path108"
       inkscape:connector-curvature="0" /><path
       d="m 279,242.73 c 0,6.84 5.54,12.38 12.38,12.38 6.83,0 12.37,-5.54 12.37,-12.38 0,-6.83 -5.54,-12.37 -12.37,-12.37 -6.84,0 -12.38,5.54 -12.38,12.37 z"
       style="fill:none;stroke:#c00000;stroke-width:3;stroke-linecap:butt;stroke-linejoin:round;stroke-miterlimit:10;stroke-dasharray:none;stroke-opacity:1"
       id="path110"
       inkscape:connector-curvature="0" /><path
       d="m 591,249.56 c 0,0.96 0.78,1.75 1.75,1.75 h 32.5 c 0.97,0 1.75,-0.79 1.75,-1.75 v -7 c 0,-0.97 -0.78,-1.75 -1.75,-1.75 h -32.5 c -0.97,0 -1.75,0.78 -1.75,1.75 z"
       style="fill:none;stroke:#c00000;stroke-width:3;stroke-linecap:butt;stroke-linejoin:round;stroke-miterlimit:10;stroke-dasharray:none;stroke-opacity:1"
       id="path112"
       inkscape:connector-curvature="0" /><path
       d="m 627,249.56 c 0,0.96 0.78,1.75 1.75,1.75 H 644 c 0.97,0 1.75,-0.79 1.75,-1.75 v -7 c 0,-0.97 -0.78,-1.75 -1.75,-1.75 h -15.25 c -0.97,0 -1.75,0.78 -1.75,1.75 z"
       style="fill:none;stroke:#c00000;stroke-width:3;stroke-linecap:butt;stroke-linejoin:round;stroke-miterlimit:10;stroke-dasharray:none;stroke-opacity:1"
       id="path114"
       inkscape:connector-curvature="0" /><path
       d="m 653.25,246.06 c 0,2.9 2.35,5.25 5.25,5.25 2.9,0 5.25,-2.35 5.25,-5.25 0,-2.9 -2.35,-5.25 -5.25,-5.25 -2.9,0 -5.25,2.35 -5.25,5.25 z"
       style="fill:#ffffff;fill-opacity:1;fill-rule:evenodd;stroke:none"
       id="path116"
       inkscape:connector-curvature="0" /><path
       d="m 653.25,246.06 c 0,2.9 2.35,5.25 5.25,5.25 2.9,0 5.25,-2.35 5.25,-5.25 0,-2.9 -2.35,-5.25 -5.25,-5.25 -2.9,0 -5.25,2.35 -5.25,5.25 z"
       style="fill:none;stroke:#c00000;stroke-width:3;stroke-linecap:butt;stroke-linejoin:round;stroke-miterlimit:10;stroke-dasharray:none;stroke-opacity:1"
       id="path118"
       inkscape:connector-curvature="0" /><path
       d="m 314.2,250.18 c 0,0.62 0.5,1.13 1.12,1.13 h 75 c 0.63,0 1.13,-0.51 1.13,-1.13 v -4.5 c 0,-0.62 -0.5,-1.12 -1.13,-1.12 h -75 c -0.62,0 -1.12,0.5 -1.12,1.12 z"
       style="fill:none;stroke:#c00000;stroke-width:3;stroke-linecap:butt;stroke-linejoin:round;stroke-miterlimit:10;stroke-dasharray:none;stroke-opacity:1"
       id="path120"
       inkscape:connector-curvature="0" /><path
       d="m 314.25,238.18 c 0,0.62 0.5,1.13 1.13,1.13 h 53.99 c 0.63,0 1.13,-0.51 1.13,-1.13 v -4.5 c 0,-0.62 -0.5,-1.12 -1.13,-1.12 h -53.99 c -0.63,0 -1.13,0.5 -1.13,1.12 z"
       style="fill:none;stroke:#c00000;stroke-width:3;stroke-linecap:butt;stroke-linejoin:round;stroke-miterlimit:10;stroke-dasharray:none;stroke-opacity:1"
       id="path122"
       inkscape:connector-curvature="0" /><path
       d="m 279,211.23 c 0,6.84 5.54,12.38 12.38,12.38 6.83,0 12.37,-5.54 12.37,-12.38 0,-6.83 -5.54,-12.37 -12.37,-12.37 -6.84,0 -12.38,5.54 -12.38,12.37 z"
       style="fill:none;stroke:#c00000;stroke-width:3;stroke-linecap:butt;stroke-linejoin:round;stroke-miterlimit:10;stroke-dasharray:none;stroke-opacity:1"
       id="path124"
       inkscape:connector-curvature="0" /><path
       d="m 614.25,218.06 c 0,0.96 0.78,1.75 1.75,1.75 h 28 c 0.97,0 1.75,-0.79 1.75,-1.75 v -7 c 0,-0.97 -0.78,-1.75 -1.75,-1.75 h -28 c -0.97,0 -1.75,0.78 -1.75,1.75 z"
       style="fill:none;stroke:#c00000;stroke-width:3;stroke-linecap:butt;stroke-linejoin:round;stroke-miterlimit:10;stroke-dasharray:none;stroke-opacity:1"
       id="path126"
       inkscape:connector-curvature="0" /><path
       d="m 653.25,214.56 c 0,2.9 2.35,5.25 5.25,5.25 2.9,0 5.25,-2.35 5.25,-5.25 0,-2.9 -2.35,-5.25 -5.25,-5.25 -2.9,0 -5.25,2.35 -5.25,5.25 z"
       style="fill:#ffffff;fill-opacity:1;fill-rule:evenodd;stroke:none"
       id="path128"
       inkscape:connector-curvature="0" /><path
       d="m 653.25,214.56 c 0,2.9 2.35,5.25 5.25,5.25 2.9,0 5.25,-2.35 5.25,-5.25 0,-2.9 -2.35,-5.25 -5.25,-5.25 -2.9,0 -5.25,2.35 -5.25,5.25 z"
       style="fill:none;stroke:#c00000;stroke-width:3;stroke-linecap:butt;stroke-linejoin:round;stroke-miterlimit:10;stroke-dasharray:none;stroke-opacity:1"
       id="path130"
       inkscape:connector-curvature="0" /><path
       d="m 314.25,218.68 c 0,0.62 0.5,1.13 1.13,1.13 h 54.74 c 0.63,0 1.13,-0.51 1.13,-1.13 v -4.5 c 0,-0.62 -0.5,-1.12 -1.13,-1.12 h -54.74 c -0.63,0 -1.13,0.5 -1.13,1.12 z"
       style="fill:none;stroke:#c00000;stroke-width:3;stroke-linecap:butt;stroke-linejoin:round;stroke-miterlimit:10;stroke-dasharray:none;stroke-opacity:1"
       id="path132"
       inkscape:connector-curvature="0" /><path
       d="m 314.25,206.68 c 0,0.62 0.5,1.13 1.13,1.13 h 61.49 c 0.63,0 1.13,-0.51 1.13,-1.13 v -4.5 c 0,-0.62 -0.5,-1.12 -1.13,-1.12 h -61.49 c -0.63,0 -1.13,0.5 -1.13,1.12 z"
       style="fill:none;stroke:#c00000;stroke-width:3;stroke-linecap:butt;stroke-linejoin:round;stroke-miterlimit:10;stroke-dasharray:none;stroke-opacity:1"
       id="path134"
       inkscape:connector-curvature="0" /><path
       d="m 279,178.98 c 0,6.84 5.54,12.38 12.38,12.38 6.83,0 12.37,-5.54 12.37,-12.38 0,-6.83 -5.54,-12.37 -12.37,-12.37 -6.84,0 -12.38,5.54 -12.38,12.37 z"
       style="fill:none;stroke:#c00000;stroke-width:3;stroke-linecap:butt;stroke-linejoin:round;stroke-miterlimit:10;stroke-dasharray:none;stroke-opacity:1"
       id="path136"
       inkscape:connector-curvature="0" /><path
       d="m 603.75,185.81 c 0,0.96 0.78,1.75 1.75,1.75 H 644 c 0.97,0 1.75,-0.79 1.75,-1.75 v -7 c 0,-0.97 -0.78,-1.75 -1.75,-1.75 h -38.5 c -0.97,0 -1.75,0.78 -1.75,1.75 z"
       style="fill:none;stroke:#c00000;stroke-width:3;stroke-linecap:butt;stroke-linejoin:round;stroke-miterlimit:10;stroke-dasharray:none;stroke-opacity:1"
       id="path138"
       inkscape:connector-curvature="0" /><path
       d="m 653.25,182.31 c 0,2.9 2.35,5.25 5.25,5.25 2.9,0 5.25,-2.35 5.25,-5.25 0,-2.9 -2.35,-5.25 -5.25,-5.25 -2.9,0 -5.25,2.35 -5.25,5.25 z"
       style="fill:#ffffff;fill-opacity:1;fill-rule:evenodd;stroke:none"
       id="path140"
       inkscape:connector-curvature="0" /><path
       d="m 653.25,182.31 c 0,2.9 2.35,5.25 5.25,5.25 2.9,0 5.25,-2.35 5.25,-5.25 0,-2.9 -2.35,-5.25 -5.25,-5.25 -2.9,0 -5.25,2.35 -5.25,5.25 z"
       style="fill:none;stroke:#c00000;stroke-width:3;stroke-linecap:butt;stroke-linejoin:round;stroke-miterlimit:10;stroke-dasharray:none;stroke-opacity:1"
       id="path142"
       inkscape:connector-curvature="0" /><path
       d="m 314.2,186.43 c 0,0.62 0.5,1.13 1.12,1.13 h 108 c 0.63,0 1.13,-0.51 1.13,-1.13 v -4.5 c 0,-0.62 -0.5,-1.12 -1.13,-1.12 h -108 c -0.62,0 -1.12,0.5 -1.12,1.12 z"
       style="fill:none;stroke:#c00000;stroke-width:3;stroke-linecap:butt;stroke-linejoin:round;stroke-miterlimit:10;stroke-dasharray:none;stroke-opacity:1"
       id="path144"
       inkscape:connector-curvature="0" /><path
       d="m 314.25,174.43 c 0,0.62 0.5,1.13 1.13,1.13 h 80.24 c 0.63,0 1.13,-0.51 1.13,-1.13 v -4.5 c 0,-0.62 -0.5,-1.12 -1.13,-1.12 h -80.24 c -0.63,0 -1.13,0.5 -1.13,1.12 z"
       style="fill:none;stroke:#c00000;stroke-width:3;stroke-linecap:butt;stroke-linejoin:round;stroke-miterlimit:10;stroke-dasharray:none;stroke-opacity:1"
       id="path146"
       inkscape:connector-curvature="0" /><path
       d="m 279,146.73 c 0,6.84 5.54,12.38 12.38,12.38 6.83,0 12.37,-5.54 12.37,-12.38 0,-6.83 -5.54,-12.37 -12.37,-12.37 -6.84,0 -12.38,5.54 -12.38,12.37 z"
       style="fill:none;stroke:#c00000;stroke-width:3;stroke-linecap:butt;stroke-linejoin:round;stroke-miterlimit:10;stroke-dasharray:none;stroke-opacity:1"
       id="path148"
       inkscape:connector-curvature="0" /><path
       d="m 599.25,153.56 c 0,0.96 0.78,1.75 1.75,1.75 h 24.25 c 0.97,0 1.75,-0.79 1.75,-1.75 v -7 c 0,-0.97 -0.78,-1.75 -1.75,-1.75 H 601 c -0.97,0 -1.75,0.78 -1.75,1.75 z"
       style="fill:none;stroke:#c00000;stroke-width:3;stroke-linecap:butt;stroke-linejoin:round;stroke-miterlimit:10;stroke-dasharray:none;stroke-opacity:1"
       id="path150"
       inkscape:connector-curvature="0" /><path
       d="m 627,153.56 c 0,0.96 0.78,1.75 1.75,1.75 H 644 c 0.97,0 1.75,-0.79 1.75,-1.75 v -7 c 0,-0.97 -0.78,-1.75 -1.75,-1.75 h -15.25 c -0.97,0 -1.75,0.78 -1.75,1.75 z"
       style="fill:none;stroke:#c00000;stroke-width:3;stroke-linecap:butt;stroke-linejoin:round;stroke-miterlimit:10;stroke-dasharray:none;stroke-opacity:1"
       id="path152"
       inkscape:connector-curvature="0" /><path
       d="m 653.25,150.06 c 0,2.9 2.35,5.25 5.25,5.25 2.9,0 5.25,-2.35 5.25,-5.25 0,-2.9 -2.35,-5.25 -5.25,-5.25 -2.9,0 -5.25,2.35 -5.25,5.25 z"
       style="fill:#ffffff;fill-opacity:1;fill-rule:evenodd;stroke:none"
       id="path154"
       inkscape:connector-curvature="0" /><path
       d="m 653.25,150.06 c 0,2.9 2.35,5.25 5.25,5.25 2.9,0 5.25,-2.35 5.25,-5.25 0,-2.9 -2.35,-5.25 -5.25,-5.25 -2.9,0 -5.25,2.35 -5.25,5.25 z"
       style="fill:none;stroke:#c00000;stroke-width:3;stroke-linecap:butt;stroke-linejoin:round;stroke-miterlimit:10;stroke-dasharray:none;stroke-opacity:1"
       id="path156"
       inkscape:connector-curvature="0" /><path
       d="m 314.25,154.18 c 0,0.62 0.5,1.13 1.13,1.13 h 65.24 c 0.63,0 1.13,-0.51 1.13,-1.13 v -4.5 c 0,-0.62 -0.5,-1.12 -1.13,-1.12 h -65.24 c -0.63,0 -1.13,0.5 -1.13,1.12 z"
       style="fill:none;stroke:#c00000;stroke-width:3;stroke-linecap:butt;stroke-linejoin:round;stroke-miterlimit:10;stroke-dasharray:none;stroke-opacity:1"
       id="path158"
       inkscape:connector-curvature="0" /><path
       d="m 314.25,142.18 c 0,0.62 0.5,1.13 1.13,1.13 h 65.24 c 0.63,0 1.13,-0.51 1.13,-1.13 v -4.5 c 0,-0.62 -0.5,-1.12 -1.13,-1.12 h -65.24 c -0.63,0 -1.13,0.5 -1.13,1.12 z"
       style="fill:none;stroke:#c00000;stroke-width:3;stroke-linecap:butt;stroke-linejoin:round;stroke-miterlimit:10;stroke-dasharray:none;stroke-opacity:1"
       id="path160"
       inkscape:connector-curvature="0" /><path
       d="m 420.75,119.18 c 0,1.73 1.4,3.13 3.13,3.13 h 58.24 c 1.73,0 3.13,-1.4 3.13,-3.13 v -12.5 c 0,-1.72 -1.4,-3.12 -3.13,-3.12 h -58.24 c -1.73,0 -3.13,1.4 -3.13,3.12 z"
       style="fill:none;stroke:#c00000;stroke-width:3;stroke-linecap:butt;stroke-linejoin:round;stroke-miterlimit:10;stroke-dasharray:none;stroke-opacity:1"
       id="path162"
       inkscape:connector-curvature="0" /><path
       d="M 82.5,423.81 82.45,88.558"
       style="fill:none;stroke:#d99694;stroke-width:3;stroke-linecap:butt;stroke-linejoin:round;stroke-miterlimit:10;stroke-dasharray:none;stroke-opacity:1"
       id="path164"
       inkscape:connector-curvature="0" /><path
       d="m 82.5,150.06 h 63.75"
       style="fill:none;stroke:#d99694;stroke-width:3;stroke-linecap:butt;stroke-linejoin:round;stroke-miterlimit:10;stroke-dasharray:none;stroke-opacity:1"
       id="path166"
       inkscape:connector-curvature="0" /><path
       d="m 96.75,133.18 c 0,2.28 1.847,4.13 4.13,4.13 2.27,0 4.12,-1.85 4.12,-4.13 0,-2.28 -1.85,-4.12 -4.12,-4.12 -2.283,0 -4.13,1.84 -4.13,4.12 z"
       style="fill:#ffffff;fill-opacity:1;fill-rule:evenodd;stroke:none"
       id="path168"
       inkscape:connector-curvature="0" /><path
       d="m 96.75,133.18 c 0,2.28 1.847,4.13 4.13,4.13 2.27,0 4.12,-1.85 4.12,-4.13 0,-2.28 -1.85,-4.12 -4.12,-4.12 -2.283,0 -4.13,1.84 -4.13,4.12 z"
       style="fill:none;stroke:#d99694;stroke-width:3;stroke-linecap:butt;stroke-linejoin:round;stroke-miterlimit:10;stroke-dasharray:none;stroke-opacity:1"
       id="path170"
       inkscape:connector-curvature="0" /><path
       d="m 96.75,106.93 c 0,2.28 1.847,4.13 4.13,4.13 2.27,0 4.12,-1.85 4.12,-4.13 0,-2.28 -1.85,-4.12 -4.12,-4.12 -2.283,0 -4.13,1.84 -4.13,4.12 z"
       style="fill:#ffffff;fill-opacity:1;fill-rule:evenodd;stroke:none"
       id="path172"
       inkscape:connector-curvature="0" /><path
       d="m 96.75,106.93 c 0,2.28 1.847,4.13 4.13,4.13 2.27,0 4.12,-1.85 4.12,-4.13 0,-2.28 -1.85,-4.12 -4.12,-4.12 -2.283,0 -4.13,1.84 -4.13,4.12 z"
       style="fill:none;stroke:#d99694;stroke-width:3;stroke-linecap:butt;stroke-linejoin:round;stroke-miterlimit:10;stroke-dasharray:none;stroke-opacity:1"
       id="path174"
       inkscape:connector-curvature="0" /><path
       d="m 210.75,288.43 c 0,0.62 0.5,1.13 1.13,1.13 h 44.24 c 0.63,0 1.13,-0.51 1.13,-1.13 v -4.5 c 0,-0.62 -0.5,-1.12 -1.13,-1.12 h -44.24 c -0.63,0 -1.13,0.5 -1.13,1.12 z"
       style="fill:none;stroke:#c00000;stroke-width:3;stroke-linecap:butt;stroke-linejoin:round;stroke-miterlimit:10;stroke-dasharray:none;stroke-opacity:1"
       id="path176"
       inkscape:connector-curvature="0" /><path
       d="m 210.75,269.68 c 0,0.62 0.5,1.13 1.13,1.13 h 44.24 c 0.63,0 1.13,-0.51 1.13,-1.13 v -4.5 c 0,-0.62 -0.5,-1.12 -1.13,-1.12 h -44.24 c -0.63,0 -1.13,0.5 -1.13,1.12 z"
       style="fill:none;stroke:#c00000;stroke-width:3;stroke-linecap:butt;stroke-linejoin:round;stroke-miterlimit:10;stroke-dasharray:none;stroke-opacity:1"
       id="path178"
       inkscape:connector-curvature="0" /><path
       d="m 210.75,251.68 c 0,0.62 0.5,1.13 1.13,1.13 h 44.24 c 0.63,0 1.13,-0.51 1.13,-1.13 v -4.5 c 0,-0.62 -0.5,-1.12 -1.13,-1.12 h -44.24 c -0.63,0 -1.13,0.5 -1.13,1.12 z"
       style="fill:none;stroke:#c00000;stroke-width:3;stroke-linecap:butt;stroke-linejoin:round;stroke-miterlimit:10;stroke-dasharray:none;stroke-opacity:1"
       id="path180"
       inkscape:connector-curvature="0" /><path
       d="M 20.25,423.81 20.2,88.558"
       style="fill:none;stroke:#f2dcdb;stroke-width:3;stroke-linecap:butt;stroke-linejoin:round;stroke-miterlimit:10;stroke-dasharray:none;stroke-opacity:1"
       id="path182"
       inkscape:connector-curvature="0" /><path
       d="m 596.75,408.29453 h 92 v 27.5361 h -92 z"
       style="fill:#ffffff;fill-opacity:1;fill-rule:evenodd;stroke:none;stroke-width:1.03410029"
       id="path184"
       inkscape:connector-curvature="0" /></g></svg>